<svg xmlns="http://www.w3.org/2000/svg" viewBox="0 0 200 200" fill="none">
  <!-- Shadow (smaller - jumping) -->
  <ellipse cx="100" cy="190" rx="30" ry="5" fill="#000" opacity="0.06"/>

  <!-- Star effects -->
  <g opacity="0.9">
    <path d="M25 60 L28 50 L31 60 L41 63 L31 66 L28 76 L25 66 L15 63 Z" fill="#F9CA24"/>
    <path d="M165 45 L167 39 L169 45 L175 47 L169 49 L167 55 L165 49 L159 47 Z" fill="#F9CA24"/>
    <path d="M40 30 L41.5 26 L43 30 L47 31.5 L43 33 L41.5 37 L40 33 L36 31.5 Z" fill="#2ECC71"/>
    <path d="M155 80 L156 77 L157 80 L160 81 L157 82 L156 85 L155 82 L152 81 Z" fill="#FF8BA7"/>
  </g>

  <!-- Green checkmark circle -->
  <circle cx="160" cy="30" r="16" fill="#2ECC71"/>
  <path d="M152 30 L158 36 L170 24" stroke="#FFFFFF" stroke-width="3" stroke-linecap="round" stroke-linejoin="round" fill="none"/>

  <!-- Body - round seed shape (slightly up - jumping) -->
  <g transform="translate(0, -10)">
    <ellipse cx="100" cy="120" rx="48" ry="55" fill="#F5E6C8"/>
    <ellipse cx="100" cy="118" rx="44" ry="51" fill="#FAECD3"/>

    <!-- Belly highlight -->
    <ellipse cx="100" cy="130" rx="28" ry="30" fill="#FFF5E6" opacity="0.5"/>

    <!-- Left arm - raised celebration -->
    <path d="M52 100 C35 85 32 70 40 65" stroke="#E8D5B0" stroke-width="6" stroke-linecap="round" fill="none"/>
    <circle cx="40" cy="63" r="6" fill="#FAECD3"/>

    <!-- Right arm - raised celebration -->
    <path d="M148 100 C165 85 168 70 160 65" stroke="#E8D5B0" stroke-width="6" stroke-linecap="round" fill="none"/>
    <circle cx="160" cy="63" r="6" fill="#FAECD3"/>

    <!-- Left leg - spread (jumping) -->
    <path d="M78 170 L65 180" stroke="#E8D5B0" stroke-width="7" stroke-linecap="round"/>

    <!-- Right leg - spread (jumping) -->
    <path d="M122 170 L135 180" stroke="#E8D5B0" stroke-width="7" stroke-linecap="round"/>

    <!-- Left shoe -->
    <ellipse cx="63" cy="182" rx="8" ry="5" fill="#8B6914"/>

    <!-- Right shoe -->
    <ellipse cx="137" cy="182" rx="8" ry="5" fill="#8B6914"/>

    <!-- Sprout stem -->
    <path d="M100 65 L100 42" stroke="#2ECC71" stroke-width="4" stroke-linecap="round"/>

    <!-- Left sprout leaf -->
    <path d="M100 50 C92 46 88 36 93 30 C96 26 100 34 100 42" fill="#2ECC71"/>

    <!-- Right sprout leaf -->
    <path d="M100 46 C108 42 112 32 107 26 C104 22 100 30 100 38" fill="#27AE60"/>

    <!-- Left eye - super happy -->
    <path d="M76 103 Q82 95 88 103" stroke="#1A1A2E" stroke-width="3" stroke-linecap="round" fill="none"/>

    <!-- Right eye - super happy -->
    <path d="M112 103 Q118 95 124 103" stroke="#1A1A2E" stroke-width="3" stroke-linecap="round" fill="none"/>

    <!-- Big happy smile -->
    <path d="M80 118 Q100 145 120 118" stroke="#1A1A2E" stroke-width="2.5" stroke-linecap="round" fill="none"/>
    <path d="M86 122 Q100 142 114 122" fill="#FF6B6B" opacity="0.5"/>

    <!-- Blush - left -->
    <ellipse cx="70" cy="115" rx="10" ry="6" fill="#FF8BA7" opacity="0.45"/>

    <!-- Blush - right -->
    <ellipse cx="130" cy="115" rx="10" ry="6" fill="#FF8BA7" opacity="0.45"/>
  </g>
</svg>
