<svg xmlns="http://www.w3.org/2000/svg" viewBox="0 0 200 200" fill="none">
  <!-- Shadow -->
  <ellipse cx="100" cy="185" rx="40" ry="8" fill="#000" opacity="0.08"/>

  <!-- Body - round seed shape -->
  <ellipse cx="100" cy="120" rx="48" ry="55" fill="#F5E6C8"/>
  <ellipse cx="100" cy="118" rx="44" ry="51" fill="#FAECD3"/>

  <!-- Belly highlight -->
  <ellipse cx="100" cy="130" rx="28" ry="30" fill="#FFF5E6" opacity="0.5"/>

  <!-- Left arm -->
  <path d="M52 120 C42 115 38 125 45 130" stroke="#E8D5B0" stroke-width="6" stroke-linecap="round" fill="none"/>

  <!-- Right arm -->
  <path d="M148 120 C158 115 162 125 155 130" stroke="#E8D5B0" stroke-width="6" stroke-linecap="round" fill="none"/>

  <!-- Left leg -->
  <path d="M80 170 L75 185" stroke="#E8D5B0" stroke-width="7" stroke-linecap="round"/>

  <!-- Right leg -->
  <path d="M120 170 L125 185" stroke="#E8D5B0" stroke-width="7" stroke-linecap="round"/>

  <!-- Left shoe -->
  <ellipse cx="73" cy="187" rx="8" ry="5" fill="#8B6914"/>

  <!-- Right shoe -->
  <ellipse cx="127" cy="187" rx="8" ry="5" fill="#8B6914"/>

  <!-- Sprout stem -->
  <path d="M100 65 L100 45" stroke="#2ECC71" stroke-width="4" stroke-linecap="round"/>

  <!-- Left sprout leaf -->
  <path d="M100 52 C92 48 88 38 93 32 C96 28 100 36 100 44" fill="#2ECC71"/>

  <!-- Right sprout leaf -->
  <path d="M100 48 C108 44 112 34 107 28 C104 24 100 32 100 40" fill="#27AE60"/>

  <!-- Left eye -->
  <circle cx="82" cy="105" r="5" fill="#1A1A2E"/>
  <circle cx="83.5" cy="103.5" r="1.5" fill="#FFFFFF"/>

  <!-- Right eye -->
  <circle cx="118" cy="105" r="5" fill="#1A1A2E"/>
  <circle cx="119.5" cy="103.5" r="1.5" fill="#FFFFFF"/>

  <!-- Smile -->
  <path d="M88 120 Q100 132 112 120" stroke="#1A1A2E" stroke-width="2.5" stroke-linecap="round" fill="none"/>

  <!-- Blush - left -->
  <ellipse cx="72" cy="118" rx="8" ry="5" fill="#FF8BA7" opacity="0.35"/>

  <!-- Blush - right -->
  <ellipse cx="128" cy="118" rx="8" ry="5" fill="#FF8BA7" opacity="0.35"/>
</svg>
